# xmcd
#
# Track frame offsets:
#	150
#	18287
#	36887
#	52860
#	72272
#	86560
#	106677
#	124427
#	140282
#	159617
#	178437
#	198395
#
# Disc length: 2889 seconds
#
# Revision: 12
# Processed by: cddbd v1.5.2PL0 Copyright (c) Steve Scherf et al.
# Submitted via: EasyCDDAExtractor 15.3.0.1
#
DISCID=a20b470c
DTITLE=Cher - Heart Of Stone 2
DYEAR=1989
DGENRE=Pop/Rock
TTITLE0=If I Could Turn Back Time
TTITLE1=Just Like Jesse James
TTITLE2=You Wouldn't Know Love
TTITLE3=Heart Of Stone
TTITLE4=Still In Love With You
TTITLE5=Love On A Rooftop
TTITLE6=Emotional Fire
TTITLE7=All Because Of You
TTITLE8=Does Anybody Really Fall In Love Anymore
TTITLE9=Starting Over
TTITLE10=Kiss To Kiss
TTITLE11=After All (Love Theme From Chances Are)
EXTD=YEAR: 1989
EXTT0=
EXTT1=
EXTT2=
EXTT3=
EXTT4=
EXTT5=
EXTT6=
EXTT7=
EXTT8=
EXTT9=
EXTT10=
EXTT11=
PLAYORDER=
